<svg width="32" height="32" viewBox="0 0 32 32" fill="none" xmlns="http://www.w3.org/2000/svg">
<g clip-path="url(#clip0)">
<path d="M16.9572 11.1161L16.957 11.1163L16.3413 11.6903L16.0004 12.0082L15.6594 11.6903L15.0438 11.1163L15.0432 11.1158C13.6362 9.79972 11.3593 9.60525 9.85888 10.762L16.9572 11.1161ZM16.9572 11.1161C18.3676 9.79946 20.6417 9.6054 22.1419 10.762L16.9572 11.1161ZM22.4122 15.8787L22.4123 15.8787C23.9456 14.4471 23.8608 12.0896 22.142 10.7621L22.4122 15.8787ZM22.4122 15.8787L16.3654 21.5277C16.1669 21.713 15.8307 21.713 15.6322 21.5277L9.58568 15.879M22.4122 15.8787L9.58568 15.879M9.58568 15.879C8.05513 14.4474 8.13992 12.0897 9.85881 10.7621L9.58568 15.879Z" fill="white" stroke="white"/>
</g>
<circle cx="16" cy="16" r="15.5" stroke="white"/>
<defs>
<clipPath id="clip0">
<rect width="16" height="16" fill="white" transform="translate(8 8)"/>
</clipPath>
</defs>
</svg>
